<svg xmlns="http://www.w3.org/2000/svg" xmlns:xlink="http://www.w3.org/1999/xlink" viewBox="0 0 100 17"><title>Keiser Logo</title><defs><path id="a" d="M99.758 16.17H0V0h99.758v16.17z"/></defs><g fill="#d10a2c" fill-rule="evenodd"><mask id="b" fill="#fff"><use xlink:href="#a"/></mask><path mask="url(#b)" d="M0 16.17L2.85.002h4.926L6.693 6.146l5.44-6.144h6.478L12.459 6.95l3.958 9.22h-5.278s-2.138-4.985-2.344-5.459a1.135 1.135 0 0 0-1.04-.685H6.008L4.925 16.17H0zM35.225.002H22.857c-2.046 0-3.656 1.497-3.981 3.34-.325 1.843-.877 4.964-1.425 8.084-.462 2.629 1.459 4.743 3.98 4.743h10.944l.684-3.88h-9.487c-.934 0-1.194-.878-1.114-1.328l.165-.935h10.835l.684-3.88H23.307s.158-.717.234-1.329c.076-.611.684-.935 1.114-.935h9.886l.684-3.88zM42.646.002h-4.925L34.87 16.169h4.925L42.646.002zM60.311.002H48.27c-2.452 0-3.75 2.035-3.98 3.34l-.342 1.94c-.525 2.973 2.067 4.744 3.98 4.744h4.67c.995 0 1.132 1.132 1.132 1.132s-.1 1.131-1.132 1.131H43.04l-.684 3.88h12.041c2.641 0 3.778-2.195 3.98-3.34.202-1.144-.181 1.16.342-1.94.524-3.099-2.028-4.743-3.98-4.743h-4.67c-1.042 0-1.131-1.132-1.131-1.132s.048-1.132 1.131-1.132h9.558l.684-3.88zM78.429.002H66.06c-2.045 0-3.655 1.497-3.98 3.34-.325 1.843-.877 4.964-1.426 8.084-.462 2.629 1.459 4.743 3.981 4.743h10.943l.685-3.88h-9.487c-.934 0-1.194-.878-1.114-1.328l.164-.935h10.836l.684-3.88H66.511s.157-.717.234-1.329c.076-.611.683-.935 1.115-.935h9.885l.684-3.88zM89.733 6.146h-4.96l.399-2.264h4.561s1.174.077 1.132 1.132c-.044 1.101-1.132 1.132-1.132 1.132M91.874.002H80.931L78.08 16.17h4.925l1.084-6.144h1.746c.521 0 .893.343 1.04.685l2.344 5.459h5.278l-2.87-6.685c1.151.04 3.588-.851 3.981-3.34.181-.997.199-1.087.247-1.4.251-1.639-.752-4.744-3.981-4.744M98.153 2.93a1.316 1.316 0 0 1-1.306-1.325c0-.732.585-1.326 1.306-1.326.722 0 1.307.594 1.307 1.326 0 .732-.585 1.326-1.307 1.326m0-2.931a1.605 1.605 0 1 0 0 3.21 1.605 1.605 0 0 0 0-3.21"/><path mask="url(#b)" d="M98.156 1.49h-.418v-.5h.466s.316-.014.295.245c-.022.276-.343.255-.343.255zm.435.45s-.107-.17-.175-.223a.552.552 0 0 0-.111-.067s.415-.015.415-.42c0-.384-.309-.421-.524-.421h-.679v1.563h.221V1.67h.295c.103 0 .227.134.367.37l.195.33h.253l-.257-.43z"/></g></svg>