<?xml version="1.0" encoding="utf-8"?>
<!-- Generator: Adobe Illustrator 24.3.0, SVG Export Plug-In . SVG Version: 6.00 Build 0)  -->
<svg version="1.0" id="katman_1" xmlns="http://www.w3.org/2000/svg" xmlns:xlink="http://www.w3.org/1999/xlink" x="0px" y="0px"
	 viewBox="0 0 841.89 595.28" style="enable-background:new 0 0 841.89 595.28;" xml:space="preserve">
<style type="text/css">
	.st0{fill:#009CDD;}
	.st1{fill:#231F1F;}
	.st2{fill:#FFFFFF;}
</style>
<path class="st0" d="M539.42,158.48l197.63,135.93c2.19,1.41,2.14,4.62-0.09,5.96l-232.8,140.34c-2.95,1.78-6.42-1.3-5.02-4.44
	l58.21-130.56c0.53-1.18,1.66-1.98,2.94-2.07l74.63-5.67c2.83-0.22,4.25-3.53,2.45-5.73L534.8,163.66
	C532.26,160.56,536.05,156.31,539.42,158.48z"/>
<g id="g12_1_" transform="scale(0.1,0.1)">
	<path id="path22_1_" class="st1" d="M3380.24,3104.69c303.16,0.11,606.29,0.11,909.52,0c0.36,70.02-0.11,140,0.18,209.83
		c-233.15,0.14-466.41-0.29-699.63,0.14c-0.29,43.98-0.36,88.07-0.07,132.13c158.42,0.29,316.72,0.46,475.13,0
		c58.72,0.21,117.47,0.29,176.29,0.11c0,70.98-0.11,141.96,0,212.94c-182.55,0.43-365.2-0.89-547.76,0.64
		c-34.58-0.29-69.19-0.71-103.66-0.64c-0.36,44.63-1.36,89.22-1.65,133.92c233.33-1.36,466.77-0.97,700.09-0.43
		c1.25,69.73-1.07,139.46,1.67,209.08c-303.59,0-607.19-0.11-910.78,0C3381.77,3703.19,3379.34,3403.99,3380.24,3104.69
		L3380.24,3104.69"/>
	<path id="path24_1_" class="st1" d="M1402.15,3361.97c-2.86,48.02-0.64,96.19-0.89,144.36c210.69,0.46,421.42,0.46,632.18-0.07
		c-1.79-50.96,3.79-102.38-3.18-153.12c-2.9-24.32-25.21-41.94-49.63-38.62c-179.15,0.43-358.41-0.82-537.57,0.68
		C1417.71,3313.16,1402.52,3339.55,1402.15,3361.97L1402.15,3361.97z M1198.94,3301.29c25.1-100.59,111.39-191.85,219.27-196.42
		c192.78-0.72,385.59-1.25,578.33-1.07c18.17,0.18,36.41,0.47,54.28,4.65c114.57,29.97,193.35,145,192.81,261.33
		c-0.06,210.69-0.06,421.49-0.06,632.22c-69.77,0.25-139.5-0.36-209.12,0.54c-2.22-95.15-0.43-190.24-1.14-285.46
		c-210.73-0.82-421.42,0.11-632.04-0.43c-0.64,95.19,0,190.31-0.36,285.54c-70.09-0.18-140.11,0-210.19-0.11
		c-0.26-76.6,0.89-153.23-0.9-229.75c0.64-111.28,0.18-222.6,0.26-333.99C1190.72,3392.55,1186.53,3345.99,1198.94,3301.29
		L1198.94,3301.29"/>
	<path id="path26_1_" class="st1" d="M2535,3314.67c-0.46,159.23-0.46,318.47,0,477.67c158.3-0.36,316.55-0.18,474.88,0
		c25.75-0.25,55.5-3.65,72.91-25.21c15.31-17.63,13.99-42.62,14.7-64.44c-0.47-102.38-0.36-204.65,0-306.99
		c-0.71-19.24-0.36-40.87-14.13-55.89c-17.38-22.42-47.67-25.68-73.88-25.46C2851.25,3314.77,2693.13,3314.24,2535,3314.67
		L2535,3314.67z M2322.84,3103.9c126.59-0.29,253.17,0.07,379.76-0.29c82.53,2.07,165.02,0.89,247.52,1.18
		c55.11,0.36,112.1-4.76,165.24,14.02c104.38,33.79,186.56,132.24,192.39,243.09c3.64,85,0.36,170.18,1.43,255.32
		c-1.29,66.4,6.87,135.53-16.45,199.36c-17.74,55.5-59.47,97.62-101.3,135.88c-15.74,11.69-33.26,21.1-51.14,28.5
		c-83.32,29.79-172.29,19.6-258.83,21.1c-186.2-0.29-372.42,0.46-558.62-0.43C2322.55,3702.4,2322.49,3403.1,2322.84,3103.9
		L2322.84,3103.9"/>
	<path id="path30_1_" class="st1" d="M4484.11,3891.49c0-7.87,0.07-23.64,0.07-31.47c12.45,3.58,31.04,2.32,30.93,20.02
		C4507.72,3889.88,4494.59,3888.88,4484.11,3891.49z M4523.38,3910.44c12.05-13.52,25.27-32.11,14.19-50.6
		c-15.2-29.61-54.42-16.38-80.92-19.6c-0.6,37.73-0.36,75.45-0.36,113.28c6.73,0.07,20.2,0.07,27.04,0.07
		c0.36-16.16,1.43-32.25,3.1-48.27c11.09,14.77,20.63,30.65,27.54,48.02c7.69,0,23.14,0.18,30.93,0.25
		C4537.57,3939.12,4530.42,3924.82,4523.38,3910.44"/>
	<path id="path32_1_" class="st1" d="M4573.69,3898.11c3.04,57.29-67.87,100.2-116.47,68.19c-55.71-29.22-50.24-122.19,9.44-143.39
		C4516.05,3800.38,4578.41,3844,4573.69,3898.11z M4601.04,3887.88c-2.33-68.19-80.46-116.04-142.86-89.9
		c-43.98,15.63-72.51,63.47-67.16,109.39c4.16,50.42,49.2,93.26,99.81,94.94C4552.23,4006.96,4608.81,3949.49,4601.04,3887.88"/>
	<path id="path34_1_" class="st2" d="M4484.11,3891.49c0-7.87,0.07-23.64,0.07-31.47c12.45,3.58,31.04,2.32,30.93,20.02
		C4507.72,3889.88,4494.59,3888.88,4484.11,3891.49z M4523.38,3910.44c12.05-13.52,25.27-32.11,14.19-50.6
		c-15.2-29.61-54.42-16.38-80.92-19.6c-0.6,37.73-0.36,75.45-0.36,113.28c6.73,0.07,20.2,0.07,27.04,0.07
		c0.36-16.16,1.43-32.25,3.1-48.27c11.09,14.77,20.63,30.65,27.54,48.02c7.69,0,23.14,0.18,30.93,0.25
		C4537.57,3939.12,4530.42,3924.82,4523.38,3910.44"/>
	<path id="path36_1_" class="st1" d="M4484.11,3891.49c0-7.87,0.07-23.64,0.07-31.47c12.45,3.58,31.04,2.32,30.93,20.02
		C4507.72,3889.88,4494.59,3888.88,4484.11,3891.49z M4523.38,3910.44c12.05-13.52,25.27-32.11,14.19-50.6
		c-15.2-29.61-54.42-16.38-80.92-19.6c-0.6,37.73-0.36,75.45-0.36,113.28c6.73,0.07,20.2,0.07,27.04,0.07
		c0.36-16.16,1.43-32.25,3.1-48.27c11.09,14.77,20.63,30.65,27.54,48.02c7.69,0,23.14,0.18,30.93,0.25
		C4537.57,3939.12,4530.42,3924.82,4523.38,3910.44"/>
</g>
<g>
	<path id="path14_1_" class="st1" d="M118.99,297.48c-0.01-29.55-0.01-59.09,0-88.64c26.46,0.03,52.93,0.02,79.4,0.01
		c5.52,0.04,10.94,2.42,14.82,6.32c12.23,12.43,12.32,34.85-0.17,47.14c-4.06,4.08-9.76,6.28-15.5,6.32
		c-10.56,0.17-21.12,0.02-31.68,0.07c-6.9-7.07-13.99-13.95-20.9-21c17.82,0.01,35.65-0.04,53.47,0.02
		c3.54-3.05,3.27-8.28,2.81-12.49c-0.32-2.21-1.08-5.35-3.76-5.54c-19.21-0.11-38.44,0.02-57.66-0.07
		c-0.07,22.61-0.05,45.23-0.01,67.84C132.86,297.47,125.92,297.45,118.99,297.48L118.99,297.48"/>
	<path id="path16_1_" class="st1" d="M330.11,208.83c7.43,0.04,14.87,0.02,22.32,0.02c6.27,17.49,12.5,35,18.65,52.52
		c5.82-16.72,11.67-33.41,17.45-50.14c0.48-0.94,0.57-2.81,2.13-2.36c6.92-0.04,13.84,0.03,20.77-0.02
		c6.16,17.47,12.35,34.93,18.55,52.4c6.41-17.43,12.66-34.92,18.96-52.38c7.39-0.02,14.78,0.02,22.16-0.02
		c-10.58,29.55-21.26,59.06-31.85,88.62c-6.06,0.01-12.11,0.03-18.17-0.01c-6.75-18.92-13.55-37.83-20.34-56.74
		c-6.86,18.89-13.58,37.84-20.38,56.75c-6.11,0.01-12.21-0.01-18.31,0.01C351.37,267.93,340.77,238.37,330.11,208.83L330.11,208.83"
		/>
	<path id="path18_1_" class="st1" d="M475.09,297.48c0.01-29.55,0-59.09,0.01-88.64c29.96,0.02,59.93,0.04,89.89-0.01
		c-0.02,6.94-0.04,13.88-0.01,20.83c-23.02-0.02-46.04,0.02-69.07-0.02c-0.02,4.33-0.02,8.67-0.04,13.01
		c21.5,0.03,42.99,0.01,64.48,0.01c-0.01,7-0.02,14.01-0.01,21.01c-21.48,0-42.96-0.02-64.45,0c0,4.33-0.02,8.66,0.01,12.99
		c23.04,0.01,46.05-0.01,69.09,0.01c-0.02,6.93-0.02,13.85,0,20.78C535.02,297.48,505.06,297.43,475.09,297.48L475.09,297.48"/>
	<path id="path20_1_" class="st1" d="M573.57,208.85c25.8,0.02,51.62,0.01,77.42,0c4.59-0.12,9.38-0.16,13.64,1.84
		c7.75,3.47,12.72,11.39,14.5,19.48c2.1,10.09,0.67,21.44-5.94,29.64c-3.7,4.89-9.46,8.14-15.58,8.61
		c-3.52,0.18-7.05,0.02-10.56,0.07c8.69,9.65,17.39,19.3,26.07,28.96c-9.56,0.04-19.14-0.02-28.71,0.01
		c-14.76-16.62-29.61-33.16-44.37-49.76c17.87-0.04,35.74,0.04,53.61-0.05c3.19,0.16,4.97-3.16,5.23-5.93
		c0.31-3.48,0.48-7.42-1.62-10.4c-1.02-1.48-2.92-1.73-4.56-1.69c-19.45,0.04-38.88,0.01-58.31,0.02
		c-0.06,22.61-0.01,45.22-0.03,67.82c-6.93-0.04-13.88-0.02-20.81-0.03C573.61,267.92,573.56,238.39,573.57,208.85L573.57,208.85"/>
	<path id="path28_1_" class="st1" d="M252.33,230.24c-3.05,1.04-4.3,4.34-4.2,7.33c-0.02,10.08,0.01,20.17-0.01,30.26
		c0.01,2.59,0.3,5.67,2.61,7.3c2.08,1.44,4.77,1.5,7.21,1.54c14.88-0.02,29.74-0.01,44.62-0.01c2.57-0.04,5.44-0.28,7.42-2.12
		c1.74-1.76,1.84-4.36,1.77-6.67c-0.06-10.37-0.01-20.74-0.03-31.11c0.06-2.15-0.67-4.47-2.53-5.69c-1.91-1.43-4.4-1.43-6.67-1.46
		c-14.03,0.05-28.04,0.02-42.06,0.02C257.76,229.7,254.96,229.36,252.33,230.24C252.33,230.24,252.33,230.24,252.33,230.24z
		 M249.14,209.54c3.99-0.96,8.13-0.66,12.2-0.68c12.88,0,25.76,0,38.63,0c3.62,0.02,7.3-0.23,10.85,0.65
		c7,1.55,13.23,5.97,17.33,11.81c3.27,4.75,4.64,10.57,4.6,16.27c-0.06,10.94,0.05,21.88-0.06,32.82
		c-0.12,6.98-2.97,13.89-8.07,18.71c-5.34,5.36-12.88,8.36-20.44,8.34c-16.25-0.01-32.5,0-48.75,0c-7.53-0.04-14.95-3.15-20.21-8.53
		c-5.19-4.99-7.95-12.19-7.9-19.35c0.04-11.47-0.07-22.94,0.05-34.41C227.56,222.91,237.36,212.12,249.14,209.54L249.14,209.54"/>
</g>
</svg>
